<svg xmlns="http://www.w3.org/2000/svg" version="1.1" xmlns:xlink="http://www.w3.org/1999/xlink" xmlns:svgjs="http://svgjs.dev/svgjs" viewBox="0 0 800 800"><defs><linearGradient x1="50%" y1="0%" x2="50%" y2="100%" id="ccchaos-grad"><stop stop-color="hsl(205, 69%, 60%)" stop-opacity="1" offset="0%"></stop><stop stop-color="hsl(205, 69%, 80%)" stop-opacity="1" offset="100%"></stop></linearGradient></defs><g stroke-width="2" stroke="url(#ccchaos-grad)" fill="none" stroke-linecap="round"><path d="M400.56 126.95C410.44 124.77 420.54 122.29 430.82 119.74 441.14 116.84 451.66 114.43 462.38 112.74 473.13 111.52 484.06 111.46 495.14 112.66 506.22 114.78 517.38 118.25 528.54 123 539.6 128.58 550.52 135.2 561.15 142.67 571.48 150.51 581.3 158.84 590.44 167.43 598.98 175.88 606.57 184.31 613.04 192.59 618.66 200.38 622.99 207.9 625.93 215.13 628.02 221.77 628.8 228.17 628.38 234.39 626.74 242.96 621.66 259.7 620.4 268.31 621.3 273.98 623.53 280.01 627.35 286.41 633.22 292.77 640.77 299.57 649.86 306.79 660.44 314.01 671.81 321.67 683.37 329.75 694.78 337.83 705.06 346.32 713.5 355.19 719.9 364.07 723.39 373.32 723.62 382.94 721.03 392.56 715.38 402.33 707.19 412.25 697.41 422.2 686.34 432.33 674.73 442.64 663.55 453.03 653.09 463.65 643.85 474.5 636.46 485.47 630.82 496.7 626.93 508.16 625.1 519.72 624.7 531.48 625.38 543.35 627.31 555.18 629.56 566.97 631.7 578.53 633.97 589.77 635.44 600.5 635.83 610.5 635.53 619.74 633.82 627.89 630.67 634.72 626.54 640.44 620.99 644.61 614.17 647.13 606.51 648.51 597.81 648.36 588.29 646.82 578.25 644.74 567.65 641.85 556.71 638.56 545.54 635.89 534.22 633.7 522.89 632.45 511.52 633.02 500.24 635.22 489.12 639.25 478.05 645.51 467.16 653.49 456.49 662.88 445.88 673.53 435.47 684.53 425.28 695.14 415.12 704.97 405.16 712.97 395.39 718.42 385.63 721.31 376.27 720.91 367.31 717.34 358.33 711.31 349.73 702.85 341.49 692.59 333.2 681.5 325.26 669.93 317.64 658.57 309.94 648.2 302.53 639.01 295.38 631.31 288.08 625.54 280.97 621.42 274.04 618.8 266.88 617.9 259.8 617.98 252.78 618.67 245.46 620.16 238.13 621.53 230.78 622.43 223.1 623.17 215.39 622.91 207.67 621.5 199.7 619.35 191.78 615.87 183.99 611.09 176.13 605.48 168.54 598.67 161.33 590.84 154.3 582.35 147.82 573.06 142.01 563.18 136.59 552.9 131.95 542.24 128.15 531.37 124.83 520.32 122.35 509.21 120.69 498.13 119.38 487.02 118.74 476.01 118.72 465.18 118.73 454.36 119.11 443.73 119.79 433.34 120.14 422.95 120.59 412.79 121.07 402.88 121.03 392.96 121 383.51 121 374.51 120.59 365.48 120.37 356.88 120.44 348.7 120.41 340.46 120.88 332.59 121.96 325.07 123.27 317.44 125.36 310.09 128.24 302.98 131.58 295.67 135.76 288.49 140.76 281.41 146.2 274 152.36 266.57 159.16 259.06 166.23 251.13 173.77 243.03 181.68 234.74 189.61 226.02 197.75 217.11 206.01 208.06 214.1 198.73 222.22 189.39 230.33 180.18 238.15 171.02 245.96 162.25 253.74 154.06 261.22 146.35 268.73 139.52 276.3 133.74 283.61 128.77 291.05 125 298.65 122.51 306.07 120.82 313.72 120.27 321.63 120.75 329.42 121.58 337.52 123.03 345.94 124.87 354.31 126.31 363.03 127.64 372.13 128.66 381.19 128.67 390.66 128.11 400.55 126.95" stroke-dasharray="3 4" transform="rotate(0, 400, 400)" opacity="0.05"></path><path d="M407.3 138.33C416.96 136.19 426.8 133.76 436.79 131.25 446.81 128.39 457 125.95 467.31 124.16 477.64 122.75 488.07 122.41 498.55 123.24 508.99 124.9 519.41 127.86 529.7 132.04 539.82 137.05 549.68 143.12 559.13 150.07 568.23 157.48 576.72 165.46 584.45 173.82 591.59 182.17 597.77 190.61 602.85 199 607.2 207.04 610.38 214.88 612.33 222.48 613.66 229.57 613.92 236.43 613.26 243.09 612.44 249.27 611.14 255.34 609.66 261.37 608.84 267.05 608.47 272.83 608.89 278.75 610.81 284.47 614.03 290.45 618.71 296.73 625.21 302.91 633.17 309.46 642.4 316.4 652.83 323.29 663.82 330.59 674.81 338.31 685.52 346 695.07 354.12 702.84 362.64 708.7 371.15 711.87 380.08 712.03 389.42 709.63 398.77 704.41 408.32 696.81 418.06 687.71 427.83 677.32 437.82 666.31 448.02 655.53 458.26 645.26 468.75 635.96 479.44 628.22 490.19 621.98 501.15 617.31 512.26 614.52 523.38 613.11 534.57 612.81 545.73 613.8 556.74 615.29 567.54 616.89 577.95 618.86 587.94 620.31 597.28 620.98 605.76 620.78 616.77 613.16 631.06 605.64 633.89 599.45 634.4 592.21 633.66 584.08 631.83 575.41 629.75 566.08 627.17 556.27 624.45 546.17 622.53 535.77 621.24 525.23 620.97 514.59 622.46 503.91 625.48 493.3 630.17 482.68 636.83 472.18 644.97 461.84 654.28 451.53 664.6 441.38 675.11 431.44 685.15 421.52 694.4 411.77 701.91 402.23 707.05 392.69 709.85 383.54 709.61 374.79 706.44 366 701 357.57 693.25 349.49 683.73 341.35 673.31 333.52 662.28 325.98 651.25 318.33 640.95 310.93 631.55 303.74 623.38 296.38 616.88 289.18 611.86 282.09 608.23 274.78 606.25 267.51 605.31 260.28 605.1 252.76 605.83 245.23 606.69 237.68 607.35 229.86 608.11 222.03 608.17 214.22 607.33 206.24 606.01 198.36 603.57 190.67 599.98 182.98 595.7 175.62 590.3 168.68 583.89 161.98 576.87 155.86 569 150.42 560.43 145.4 551.46 141.16 541.98 137.74 532.16 134.77 522.12 132.62 511.89 131.25 501.57 130.19 491.17 129.76 480.78 129.91 470.47 130.05 460.15 130.53 449.95 131.28 439.92 131.69 429.9 132.17 420.05 132.66 410.41 132.63 400.77 132.58 391.55 132.54 382.73 132.09 373.89 131.8 365.42 131.75 357.31 131.59 349.14 131.88 341.28 132.72 333.69 133.77 325.98 135.54 318.47 138.08 311.13 141.03 303.57 144.8 296.09 149.37 288.63 154.39 280.86 160.14 273.03 166.54 265.09 173.26 256.79 180.49 248.33 188.13 239.71 195.87 230.77 203.88 221.72 212.07 212.61 220.16 203.35 228.33 194.2 236.53 185.29 244.51 176.55 252.48 168.3 260.44 160.72 268.14 153.68 275.85 147.56 283.59 142.49 291.09 138.2 298.68 135.07 306.38 133.13 313.9 131.89 321.61 131.69 329.51 132.41 337.3 133.37 345.35 134.86 353.68 136.66 361.94 138.03 370.53 139.25 379.46 140.15 388.36 140.1 397.63 139.49 407.29 138.33" stroke-dasharray="7 10" transform="rotate(4.04, 400, 400)" opacity="0.09"></path><path d="M413.36 149.7C422.77 147.61 432.3 145.24 441.94 142.79 451.58 139.97 461.33 137.52 471.13 135.65 480.91 134.09 490.72 133.49 500.48 133.97 510.15 135.2 519.69 137.64 529 141.27 538.1 145.69 546.83 151.17 555.06 157.55 562.92 164.46 570.11 172.02 576.51 180.03 582.37 188.16 587.3 196.49 591.21 204.88 594.52 213.03 596.8 221.08 598.06 228.96 598.91 236.43 598.93 243.69 598.28 250.75 597.71 257.38 596.9 263.87 596.12 270.28 596.13 276.33 596.71 282.39 598.14 288.53 601.02 294.44 605.1 300.52 610.52 306.82 617.52 312.98 625.76 319.45 635.01 326.23 645.22 332.95 655.76 340.04 666.15 347.5 676.16 354.93 685 362.77 692.12 371.01 697.47 379.23 700.34 387.87 700.44 396.95 698.22 406.02 693.41 415.32 686.38 424.82 677.94 434.35 668.22 444.1 657.81 454.04 647.5 464.01 637.49 474.19 628.21 484.52 620.24 494.86 613.53 505.33 608.2 515.84 604.55 526.29 602.2 536.68 600.94 546.91 600.98 556.9 601.63 566.54 602.57 575.67 604.05 584.31 605.27 592.22 605.97 599.2 603.76 613.23 587.64 619.26 577.92 616.84 570.6 614.98 562.56 612.86 553.95 610.83 545.01 609.72 535.66 609.34 526.05 610 516.28 612.34 506.37 616.1 496.41 621.34 486.41 628.31 476.43 636.53 466.54 645.69 456.66 655.65 446.88 665.66 437.25 675.12 427.64 683.81 418.17 690.84 408.86 695.67 399.56 698.38 390.61 698.29 382.02 695.51 373.41 690.62 365.11 683.55 357.12 674.76 349.07 665.04 341.28 654.59 333.74 643.96 326.09 633.83 318.63 624.35 311.34 615.85 303.89 608.77 296.54 602.97 289.27 598.43 281.79 595.43 274.34 593.47 266.9 592.33 259.22 592.2 251.52 592.39 243.83 592.6 235.92 593.13 228.05 593.21 220.24 592.66 212.33 591.86 204.57 590.15 197.06 587.48 189.62 584.29 182.56 580.09 175.97 574.94 169.65 569.25 163.94 562.72 158.92 555.45 154.32 547.77 150.49 539.52 147.45 530.82 144.85 521.88 143.02 512.63 141.93 503.19 141.1 493.63 140.87 483.97 141.16 474.3 141.42 464.59 141.99 454.92 142.79 445.34 143.25 435.75 143.75 426.27 144.25 416.93 144.23 407.58 144.17 398.58 144.11 389.92 143.62 381.24 143.27 372.86 143.13 364.77 142.85 356.61 142.98 348.69 143.61 340.97 144.41 333.13 145.88 325.42 148.06 317.8 150.63 309.99 153.99 302.19 158.11 294.36 162.68 286.28 167.98 278.1 173.94 269.82 180.24 261.25 187.09 252.55 194.4 243.75 201.86 234.74 209.65 225.69 217.67 216.69 225.67 207.66 233.81 198.84 242.01 190.37 250.06 182.17 258.14 174.54 266.22 167.64 274.09 161.32 281.97 155.92 289.87 151.57 297.56 147.95 305.3 145.42 313.12 143.99 320.78 143.17 328.57 143.27 336.52 144.18 344.35 145.24 352.39 146.74 360.66 148.47 368.87 149.75 377.36 150.86 386.13 151.65 394.88 151.52 403.95 150.87 413.35 149.7" stroke-dasharray="0 5" transform="rotate(8.08, 400, 400)" opacity="0.13"></path><path d="M418.19 161.08C427.3 159.03 436.47 156.73 445.68 154.34 454.88 151.58 464.1 149.14 473.29 147.21 482.46 145.52 491.54 144.7 500.48 144.85 509.31 145.68 517.91 147.63 526.18 150.7 534.24 154.53 541.84 159.4 548.88 165.19 555.57 171.53 561.56 178.58 566.77 186.16 571.53 193.95 575.42 202.05 578.39 210.3 580.92 218.44 582.58 226.57 583.42 234.61 584.05 242.34 584.08 249.92 583.68 257.32 583.53 264.35 583.34 271.25 583.36 278.03 584.24 284.47 585.76 290.88 588.15 297.31 591.88 303.48 596.73 309.76 602.74 316.2 610.12 322.47 618.51 328.97 627.68 335.72 637.58 342.39 647.64 349.37 657.4 356.68 666.71 363.95 674.86 371.58 681.36 379.59 686.23 387.58 688.8 395.97 688.85 404.77 686.81 413.56 682.38 422.57 675.9 431.77 668.1 440.97 659.05 450.38 649.26 459.93 639.44 469.49 629.75 479.2 620.59 488.98 612.49 498.74 605.44 508.52 599.55 518.24 595.17 527.84 591.95 537.27 589.79 546.41 588.89 555.25 588.67 563.65 588.87 571.44 590.84 589.82 588.16 604.89 583.83 605.34 580.08 604.91 575.39 603.75 569.82 602.04 563.78 600.55 556.99 599.03 549.57 597.76 541.81 597.49 533.56 598.01 524.96 599.56 516.16 602.66 507.12 607.05 497.94 612.75 488.67 619.94 479.34 628.15 470 637.1 460.65 646.67 451.33 656.16 442.09 665.06 432.86 673.19 423.71 679.76 414.67 684.3 405.63 686.9 396.9 686.95 388.47 684.53 380.01 680.17 371.83 673.76 363.9 665.69 355.91 656.67 348.13 646.83 340.55 636.67 332.87 626.8 325.33 617.37 317.91 608.68 310.35 601.15 302.85 594.71 295.42 589.39 287.79 585.46 280.18 582.53 272.58 580.44 264.79 579.39 257.01 578.79 249.25 578.4 241.34 578.48 233.5 578.35 225.78 577.81 218.04 577.23 210.5 575.97 203.25 573.93 196.14 571.55 189.45 568.3 183.25 564.19 177.37 559.65 172.11 554.3 167.54 548.22 163.38 541.77 159.97 534.7 157.32 527.12 155.08 519.29 153.56 511.07 152.73 502.56 152.13 493.92 152.07 485.08 152.49 476.12 152.85 467.11 153.49 458.03 154.33 448.96 154.81 439.87 155.33 430.8 155.84 421.78 155.82 412.77 155.77 404 155.69 395.5 155.19 386.97 154.79 378.66 154.58 370.57 154.2 362.41 154.19 354.41 154.63 346.55 155.2 338.57 156.38 330.66 158.23 322.79 160.42 314.74 163.36 306.68 167.03 298.56 171.12 290.24 175.94 281.82 181.42 273.32 187.25 264.61 193.67 255.83 200.56 247.02 207.67 238.09 215.15 229.21 222.91 220.48 230.72 211.83 238.71 203.48 246.82 195.57 254.85 188.01 262.95 181.07 271.07 174.91 279.04 169.33 287.03 164.67 295.03 161.01 302.87 158.03 310.74 156.07 318.67 155.1 326.45 154.65 334.32 155 342.31 156.05 350.2 157.18 358.25 158.65 366.47 160.3 374.63 161.47 383.01 162.46 391.63 163.14 400.22 162.94 409.07 162.25 418.18 161.08" stroke-dasharray="4 0" transform="rotate(12.12, 400, 400)" opacity="0.16"></path><path d="M421.33 172.45C430.11 170.46 438.87 168.23 447.58 165.91 456.29 163.22 464.93 160.81 473.45 158.83 481.93 157.04 490.24 156.03 498.32 155.89 506.28 156.34 513.93 157.84 521.18 160.37 528.22 163.62 534.75 167.87 540.7 173.03 546.34 178.76 551.3 185.23 555.51 192.3 559.37 199.65 562.46 207.39 564.75 215.38 566.77 223.37 568.08 231.44 568.76 239.51 569.41 247.37 569.66 255.14 569.68 262.79 570.09 270.14 570.62 277.36 571.48 284.47 573.22 291.29 575.64 298.04 578.9 304.77 583.38 311.25 588.85 317.79 595.32 324.41 602.95 330.87 611.37 337.48 620.37 344.29 629.89 351 639.41 357.96 648.54 365.18 657.16 372.36 664.63 379.85 670.54 387.67 674.95 395.46 677.26 403.61 677.27 412.12 675.38 420.62 671.32 429.3 665.37 438.11 658.18 446.93 649.79 455.89 640.62 464.93 631.32 473.97 622.01 483.06 613.05 492.16 604.94 501.18 597.65 510.14 591.34 518.94 586.34 527.57 582.38 535.93 579.39 543.9 577.59 551.56 576.5 558.69 575.91 565.16 575.41 585.24 566.34 589.47 559.98 587.59 555.06 586.62 549.41 585.79 543.1 585.33 536.49 585.89 529.33 587.26 521.74 589.62 513.96 593.4 505.84 598.32 497.49 604.36 489.04 611.68 480.43 619.82 471.72 628.51 462.99 637.65 454.21 646.62 445.42 654.96 436.63 662.54 427.86 668.67 419.12 672.93 410.39 675.43 401.89 675.6 393.62 673.5 385.34 669.65 377.27 663.87 369.39 656.5 361.46 648.18 353.69 638.99 346.07 629.35 338.36 619.84 330.75 610.55 323.23 601.8 315.57 593.99 307.97 587.05 300.41 581.08 292.69 576.33 284.99 572.51 277.31 569.51 269.49 567.54 261.71 566.1 253.98 564.99 246.17 564.46 238.47 563.91 230.95 563.15 223.46 562.53 216.22 561.43 209.32 559.74 202.61 557.88 196.35 555.3 190.61 551.98 185.21 548.36 180.42 543.99 176.31 538.93 172.62 533.57 169.62 527.58 167.37 521.04 165.47 514.28 164.24 507.07 163.66 499.48 163.26 491.77 163.36 483.76 163.89 475.55 164.34 467.28 165.02 458.85 165.89 450.32 166.39 441.78 166.92 433.17 167.42 424.51 167.42 415.85 167.37 407.34 167.28 399.01 166.77 390.65 166.35 382.44 166.08 374.35 165.63 366.22 165.5 358.17 165.77 350.19 166.13 342.11 167.05 334.05 168.58 326 170.4 317.8 172.93 309.56 176.15 301.27 179.77 292.82 184.08 284.31 189.05 275.74 194.38 267.06 200.29 258.36 206.71 249.69 213.39 241.02 220.47 232.48 227.88 224.17 235.39 216.03 243.14 208.28 251.05 201.03 258.96 194.17 266.96 187.99 275.02 182.59 282.99 177.76 291 173.83 299.03 170.84 306.95 168.46 314.89 167.01 322.86 166.45 330.73 166.31 338.65 166.87 346.65 168.02 354.57 169.17 362.6 170.6 370.75 172.14 378.85 173.2 387.11 174.06 395.54 174.62 403.94 174.35 412.54 173.62 421.32 172.45" stroke-dasharray="5 1" transform="rotate(16.16, 400, 400)" opacity="0.20"></path><path d="M422.49 183.82C430.89 181.89 439.2 179.74 447.38 177.5 455.55 174.89 463.57 172.52 471.39 170.53 479.17 168.66 486.7 167.48 493.92 167.09 501.04 167.2 507.78 168.26 514.07 170.29 520.18 172.97 525.77 176.6 530.77 181.12 535.52 186.21 539.64 192.06 543.08 198.54 546.27 205.37 548.8 212.64 550.68 220.25 552.41 227.96 553.62 235.83 554.37 243.78 555.24 251.62 555.89 259.45 556.47 267.21 557.53 274.76 558.83 282.21 560.52 289.57 563.1 296.69 566.33 303.73 570.35 310.73 575.46 317.51 581.43 324.3 588.22 331.13 595.96 337.79 604.31 344.56 613.04 351.46 622.13 358.25 631.09 365.23 639.57 372.42 647.51 379.55 654.33 386.93 659.68 394.56 663.66 402.18 665.71 410.09 665.68 418.28 663.95 426.47 660.24 434.77 654.79 443.14 648.2 451.5 640.44 459.93 631.9 468.37 623.15 476.79 614.27 485.18 605.58 493.47 597.54 501.68 590.14 509.73 583.53 517.52 578.03 525.13 573.44 532.39 569.71 539.19 566.13 548.66 562.97 563.78 562.43 569.1 557.49 574.68 542.33 573.25 534.68 573.56 529.1 574.94 522.97 577.1 516.35 580.18 509.55 584.53 502.36 589.88 494.86 596.17 487.25 603.53 479.4 611.53 471.37 619.9 463.31 628.6 455.11 637.04 446.83 644.82 438.54 651.88 430.19 657.57 421.8 661.55 413.41 663.95 405.18 664.23 397.11 662.44 389.03 659.05 381.1 653.87 373.3 647.19 365.46 639.57 357.73 631.04 350.09 621.98 342.39 612.89 334.75 603.86 327.17 595.17 319.5 587.21 311.85 579.93 304.23 573.45 296.51 568.02 288.81 563.41 281.14 559.57 273.4 556.71 265.71 554.41 258.13 552.52 250.52 551.28 243.07 550.16 235.83 549 228.69 548.11 221.85 546.92 215.38 545.33 206.24 542.62 191.07 533.97 185.3 527.91 182.05 523.44 179.48 518.37 177.6 512.75 176.03 506.95 175.08 500.65 174.72 493.94 174.51 487.11 174.74 479.93 175.36 472.46 175.87 464.93 176.59 457.16 177.46 449.21 177.98 441.23 178.51 433.1 179.01 424.83 179.02 416.56 178.97 408.35 178.89 400.22 178.39 392.08 177.95 384 177.64 375.97 177.13 367.91 176.91 359.87 177.04 351.84 177.21 343.75 177.89 335.63 179.12 327.49 180.61 319.26 182.74 310.98 185.52 302.65 188.65 294.24 192.46 285.78 196.9 277.33 201.69 268.83 207.07 260.38 212.97 252.04 219.14 243.77 225.75 235.72 232.72 227.96 239.84 220.46 247.24 213.39 254.85 206.88 262.51 200.79 270.3 195.38 278.2 190.75 286.06 186.66 293.98 183.42 301.94 181.06 309.83 179.23 317.75 178.24 325.69 178.03 333.56 178.14 341.47 178.86 349.42 180.06 357.31 181.21 365.27 182.56 373.3 183.99 381.3 184.92 389.4 185.65 397.6 186.09 405.78 185.75 414.08 184.99 422.48 183.83" stroke-dasharray="9 2" transform="rotate(20.200000000000003, 400, 400)" opacity="0.24"></path><path d="M421.57 195.2C429.56 193.33 437.37 191.26 445 189.11 452.61 186.59 460 184.27 467.14 182.29 474.22 180.37 481 179.06 487.43 178.45 496.71 178.59 512.83 184.12 519.46 189.52 523.52 193.96 527.01 199.15 529.91 204.98 532.66 211.21 534.87 217.94 536.58 225.06 538.26 232.35 539.57 239.89 540.59 247.58 541.83 255.26 542.99 262.99 544.21 270.72 545.97 278.32 548.03 285.87 550.53 293.36 553.86 300.67 557.82 307.91 562.47 315.1 568.07 322.11 574.4 329.11 581.38 336.1 589.12 342.96 597.29 349.87 605.68 356.85 614.29 363.74 622.66 370.74 630.49 377.89 637.76 384.99 643.95 392.26 648.77 399.71 652.34 407.15 654.16 414.8 654.09 422.65 652.51 430.5 649.13 438.38 644.16 446.25 638.14 454.12 631.01 461.96 623.09 469.73 614.91 477.47 606.49 485.09 598.14 492.54 590.27 499.89 582.86 507 576.07 513.79 570.2 520.39 565.1 526.59 560.75 532.29 550.83 552.67 545.79 561.3 543.49 561.05 540.45 560.77 530.99 561.02 524.58 562.51 519.89 564.64 514.65 567.51 508.92 571.22 503.02 576.04 496.7 581.7 490.02 588.14 483.23 595.46 476.14 603.25 468.81 611.27 461.43 619.49 453.85 627.4 446.11 634.64 438.35 641.18 430.46 646.47 422.46 650.18 414.46 652.47 406.54 652.85 398.71 651.34 390.87 648.39 383.12 643.78 375.44 637.76 367.74 630.82 360.1 622.97 352.52 614.51 344.89 605.92 337.3 597.24 329.74 588.73 322.12 580.75 314.51 573.28 306.95 566.43 299.32 560.47 291.72 555.21 284.19 550.64 276.63 546.96 269.16 543.84 261.83 541.17 254.53 539.16 247.43 537.38 240.58 535.68 233.87 534.34 227.5 532.87 221.52 531.14 213.16 528.49 199.56 520.85 194.52 515.64 190.64 509.66 186.42 494.86 185.92 486.18 185.86 480.15 186.2 473.72 186.89 466.95 187.44 460.12 188.19 453 189.06 445.61 189.58 438.21 190.11 430.57 190.6 422.71 190.62 414.86 190.58 406.99 190.5 399.11 190.02 391.24 189.59 383.35 189.25 375.45 188.71 367.53 188.41 359.59 188.42 351.63 188.44 343.62 188.91 335.57 189.87 327.48 191.04 319.35 192.79 311.17 195.15 302.98 197.82 294.75 201.13 286.53 205.03 278.35 209.27 270.21 214.09 262.17 219.42 254.31 225.04 246.6 231.11 239.15 237.56 232.07 244.21 225.29 251.17 218.98 258.37 213.25 265.67 207.94 273.15 203.32 280.75 199.44 288.38 196.06 296.1 193.47 303.87 191.69 311.62 190.34 319.41 189.74 327.23 189.82 335 190.14 342.8 190.95 350.62 192.18 358.41 193.28 366.23 194.54 374.08 195.83 381.91 196.63 389.79 197.23 397.71 197.55 405.62 197.14 413.58 196.36 421.56 195.2" stroke-dasharray="6 10" transform="rotate(24.24, 400, 400)" opacity="0.28"></path><path d="M418.65 206.57C426.19 204.77 433.5 202.79 440.57 200.73 447.62 198.31 454.4 196.06 460.88 194.1 470.35 191.46 487.36 189.66 494.73 190.93 501.47 193.79 512.33 204.31 516.45 211.73 518.98 217.3 521.09 223.41 522.83 229.94 524.65 236.72 526.22 243.79 527.64 251.09 529.36 258.46 531.12 265.95 533.01 273.5 535.46 281 538.25 288.5 541.49 295.97 545.48 303.33 550.03 310.65 555.2 317.92 561.16 325.07 567.7 332.18 574.74 339.27 582.37 346.25 590.27 353.25 598.26 360.26 606.34 367.21 614.1 374.21 621.28 381.29 627.9 388.33 633.5 395.47 637.81 402.72 641 409.95 642.61 417.32 642.5 424.8 641.06 432.28 637.99 439.71 633.48 447.05 628.01 454.38 621.48 461.61 614.18 468.69 606.58 475.72 598.67 482.57 590.71 489.17 583.08 495.68 575.76 501.88 568.91 507.71 562.8 513.38 557.31 518.61 552.47 523.33 539.07 539.75 531.76 546.77 529.47 546.9 522.69 548.44 506.93 556.73 499.71 562.7 494.6 567.88 489.06 573.76 483.13 580.25 477.1 587.45 470.74 594.97 464.08 602.61 457.37 610.34 450.41 617.71 443.22 624.42 436.01 630.47 428.61 635.35 421.04 638.8 413.46 640.99 405.89 641.44 398.36 640.2 390.82 637.66 383.3 633.59 375.82 628.2 368.33 621.94 360.85 614.76 353.4 606.94 345.93 598.89 338.47 590.64 331.03 582.42 323.56 574.55 316.12 567.02 308.71 559.97 301.29 553.62 293.92 547.85 286.63 542.67 279.37 538.28 272.23 534.41 265.26 530.99 258.37 528.22 251.71 525.74 245.34 523.42 236.21 520.57 220.33 514.69 213.82 511.19 208.34 507.35 200.76 497.36 198.67 491.14 197.46 484.32 197.53 468.36 198.48 459.33 199.06 453.15 199.81 446.62 200.67 439.79 201.19 432.93 201.7 425.79 202.19 418.38 202.22 410.96 202.2 403.46 202.13 395.9 201.67 388.34 201.25 380.72 200.92 373.05 200.35 365.36 200 357.62 199.92 349.84 199.81 342.04 200.1 334.19 200.83 326.31 201.71 318.42 203.12 310.51 205.08 302.61 207.31 294.73 210.13 286.9 213.5 279.17 217.19 271.53 221.43 264.05 226.18 256.8 231.21 249.75 236.7 243.02 242.58 236.69 248.68 230.68 255.11 225.17 261.81 220.24 268.65 215.72 275.7 211.86 282.91 208.7 290.19 205.98 297.58 203.98 305.06 202.7 312.55 201.78 320.09 201.5 327.67 201.81 335.23 202.27 342.83 203.15 350.42 204.35 358.01 205.38 365.61 206.53 373.2 207.67 380.79 208.33 388.38 208.8 395.96 209.01 403.54 208.53 411.11 207.72 418.64 206.58" stroke-dasharray="11 2" transform="rotate(28.28, 400, 400)" opacity="0.32"></path><path d="M414 217.95C421.07 216.21 427.87 214.32 434.4 212.36 440.9 210.06 447.11 207.89 453 205.97 461.59 203.3 476.83 200.95 483.4 201.67 489.43 203.79 499.29 212.47 503.19 218.87 505.68 223.75 507.87 229.18 509.81 235.07 511.9 241.23 513.86 247.75 515.78 254.54 518.03 261.46 520.4 268.56 522.96 275.78 526.06 283.02 529.51 290.31 533.37 297.62 537.9 304.88 542.93 312.13 548.45 319.35 554.63 326.49 561.26 333.6 568.24 340.68 575.66 347.69 583.21 354.68 590.74 361.66 598.26 368.58 605.41 375.52 611.95 382.48 617.94 389.41 622.96 396.38 626.81 403.39 629.64 410.38 631.05 417.43 630.92 424.52 629.61 431.61 626.83 438.56 622.75 445.36 617.8 452.14 611.86 458.75 605.17 465.14 598.15 471.49 590.76 477.59 583.24 483.4 575.93 489.12 568.79 494.49 561.98 499.47 555.76 504.32 550.02 508.72 544.81 512.64 533.6 521.98 522.91 530.47 520.48 531.66 515.73 533.69 505.74 538.93 500.91 542.57 497.44 545.97 493.52 549.97 489.15 554.59 484.69 560.02 479.8 566.01 474.52 572.47 469.17 579.47 463.46 586.68 457.43 593.9 451.35 601.14 444.98 607.98 438.34 614.16 431.69 619.73 424.79 624.23 417.66 627.43 410.54 629.51 403.37 630.03 396.18 629.02 388.99 626.85 381.78 623.29 374.57 618.51 367.35 612.9 360.13 606.4 352.9 599.23 345.68 591.77 338.45 584.01 331.25 576.16 324.05 568.52 316.87 561.08 309.74 553.96 302.64 547.38 295.61 541.26 288.69 535.62 281.83 530.65 275.12 526.14 268.61 522.06 262.22 518.58 256.08 515.4 250.25 512.45 241.97 508.71 227.83 501.65 222.15 497.9 214.29 489.33 208.66 472.78 208.68 465.8 209.12 458.35 211.09 441.51 212.3 432.19 212.8 425.85 213.3 419.2 213.77 412.24 213.82 405.28 213.81 398.19 213.76 391 213.34 383.81 212.94 376.53 212.61 369.17 212.05 361.82 211.67 354.39 211.52 346.92 211.32 339.45 211.46 331.93 211.98 324.41 212.61 316.9 213.72 309.41 215.31 301.96 217.13 294.58 219.49 287.29 222.36 280.14 225.51 273.12 229.18 266.31 233.33 259.79 237.76 253.48 242.63 247.52 247.9 242 253.4 236.79 259.24 232.08 265.37 227.94 271.67 224.18 278.2 221.03 284.92 218.54 291.73 216.42 298.69 214.94 305.75 214.09 312.87 213.52 320.05 213.5 327.28 213.97 334.53 214.52 341.8 215.41 349.08 216.55 356.36 217.49 363.64 218.5 370.9 219.49 378.16 220.01 385.4 220.35 392.59 220.44 399.79 219.91 406.93 219.08 413.99 217.95" stroke-dasharray="7 9" transform="rotate(32.32, 400, 400)" opacity="0.35"></path><path d="M408.06 229.32C414.64 227.66 420.94 225.87 426.95 224.01 435.8 220.79 451.85 215.23 458.98 213.42 471.47 213.3 486.63 221.09 490.56 226.48 494.37 233.02 501.49 249 505.14 258.13 507.94 264.49 510.89 271.08 514.07 277.84 517.74 284.67 521.74 291.61 526.12 298.6 531.06 305.61 536.42 312.64 542.17 319.66 548.43 326.65 555.01 333.62 561.83 340.56 568.94 347.47 576.09 354.34 583.11 361.18 590.05 368 596.57 374.79 602.49 381.55 607.88 388.3 612.36 395.04 615.76 401.76 618.26 408.47 619.48 415.17 619.33 421.84 618.14 428.5 615.65 434.97 611.97 441.23 607.52 447.47 602.14 453.48 596.05 459.23 589.61 464.94 582.77 470.36 575.73 475.46 568.79 480.48 561.92 485.15 555.25 489.42 549.03 493.59 543.16 497.34 537.71 500.64 525.08 508.62 511.79 516.35 508.6 517.82 502.91 521.16 492.78 529.13 488.32 533.67 485.19 537.55 481.67 541.95 477.75 546.86 473.78 552.43 469.41 558.43 464.68 564.77 459.89 571.52 454.74 578.37 449.27 585.14 443.76 591.87 437.94 598.18 431.83 603.86 425.7 608.97 419.3 613.1 412.65 616.05 406 618.02 399.27 618.6 392.48 617.8 385.69 615.98 378.85 612.9 371.98 608.69 365.12 603.71 358.23 597.88 351.33 591.37 344.45 584.52 337.56 577.31 330.7 569.91 323.87 562.61 317.07 555.37 310.34 548.32 303.66 541.67 297.07 535.35 290.62 529.41 284.26 524 278.07 518.99 272.1 514.35 266.28 510.24 260.72 506.44 255.48 502.88 248.11 498.24 235.73 489.78 230.87 485.58 224.34 476.77 220.03 460.91 220.25 454.44 220.79 447.59 222.78 432.08 223.94 423.46 224.43 417.59 224.91 411.4 225.36 404.9 225.42 398.4 225.43 391.75 225.4 384.98 225.01 378.22 224.65 371.35 224.34 364.4 223.8 357.47 223.42 350.46 223.22 343.41 222.95 336.38 222.97 329.33 223.33 322.29 223.75 315.3 224.59 308.35 225.86 301.49 227.31 294.72 229.24 288.08 231.64 281.62 234.27 275.32 237.39 269.26 240.97 263.52 244.79 258 249.04 252.85 253.68 248.14 258.54 243.72 263.76 239.79 269.27 236.41 274.95 233.35 280.89 230.86 287.04 228.96 293.31 227.36 299.74 226.32 306.3 225.83 312.93 225.54 319.65 225.7 326.43 226.28 333.25 226.87 340.11 227.72 346.97 228.78 353.85 229.61 360.74 230.47 367.58 231.29 374.45 231.67 381.27 231.88 388.02 231.87 394.78 231.28 401.47 230.43 408.05 229.32" stroke-dasharray="0 9" transform="rotate(36.36, 400, 400)" opacity="0.39"></path><path d="M401.37 240.7C410.37 238.26 426.98 232.63 434.53 229.87 444.34 226.16 452.9 224.07 460.19 223.99 467.47 225.09 473.67 228.69 478.98 234.62 484.76 241.95 490.24 251.26 495.84 262.07 502.8 273.68 510.64 286.22 519.66 299.25 530.53 312.49 542.61 325.91 555.45 339.25 568.99 352.57 581.89 365.8 592.9 378.78 597.71 385.27 601.68 391.71 604.67 398.09 606.86 404.47 607.91 410.78 607.74 417.01 606.67 423.24 604.44 429.23 601.15 434.97 597.16 440.7 592.33 446.16 586.81 451.33 574.86 461.58 561.76 470.55 548.65 478.05 536.82 485.31 526.15 491.04 516.88 495.26 509.62 499.44 503.44 502.5 497.92 504.8 493.62 508.01 489.13 511.43 484.04 515.62 479.24 521.97 473.3 529.88 466.09 539.45 458.78 551.12 450.11 563.75 440.14 576.32 435.12 582.54 429.79 588.34 424.18 593.52 418.55 598.19 412.64 601.96 406.47 604.68 400.3 606.54 394.03 607.15 387.68 606.55 381.33 605.05 374.92 602.4 368.47 598.73 355.61 589.39 342.62 577.25 329.75 563.6 317.05 549.93 304.59 536.46 292.7 523.91 281.23 513.01 270.6 503.35 261.18 494.78 252.53 487.75 245.39 481.18 240.02 474.64 235.54 468.81 232.82 462.35 231.86 455 231.28 447.77 231.93 439.37 233.56 429.75 234.49 422.35 236.28 406.01 236.95 397.08 237.02 391.03 237.04 384.84 237.04 378.54 236.7 372.24 236.38 365.85 236.1 359.38 234.9 346.51 234.4 333.45 234.86 320.5 235.44 307.81 237.59 295.49 241.36 283.94 245.9 273.04 252.2 263.32 260.04 255.21 268.68 248.15 278.64 242.99 289.56 239.94 300.97 237.8 313.07 237.47 325.5 238.7 338.17 239.75 351 241.37 363.73 243.07 370.12 243.3 376.48 243.39 382.76 243.28 389.05 242.64 395.26 241.78 401.36 240.7" stroke-dasharray="7 10" transform="rotate(40.400000000000006, 400, 400)" opacity="0.43"></path><path d="M394.55 252.07C405.79 248.65 416.03 245.1 425.2 241.88 434.33 238.28 442.41 236.06 449.46 235.57 456.61 235.98 462.97 238.61 468.74 243.35 475.07 249.32 481.35 257.21 487.9 266.59 495.68 276.8 504.3 288.06 513.87 299.94 524.9 312.15 536.78 324.67 549.03 337.22 561.62 349.83 573.35 362.36 583.18 374.64 591.16 386.92 595.73 398.95 596.16 410.52 593.49 422.09 586.95 432.61 577.46 441.97 566.63 451.25 554.52 459.28 542.13 465.98 530.59 472.56 519.81 477.85 510.11 481.94 502.06 486.23 494.96 489.74 488.55 492.84 483.32 496.95 478.13 501.45 472.62 506.76 467.53 513.97 461.63 522.5 454.74 532.32 447.87 543.76 439.84 555.76 430.66 567.44 421.43 578.63 411.07 587.63 399.69 593.3 388.31 596 376.51 594.3 364.54 588.64 352.64 580.49 340.65 569.65 328.81 557.18 317.19 544.4 305.88 531.45 295.2 519.01 284.97 507.78 275.62 497.48 267.47 488.14 260.03 480.12 254.01 472.63 249.63 465.36 245.97 458.83 243.88 451.97 243.34 444.53 243.02 437.3 243.76 429.17 245.35 420.05 246.25 410.94 247.37 400.76 248.54 389.55 248.35 378.34 248.1 366.67 247.89 354.8 246.78 343.01 246.26 331.16 246.56 319.54 246.85 308.21 248.48 297.37 251.54 287.39 255.18 278.04 260.42 269.89 267.09 263.29 274.46 257.58 283.1 253.58 292.72 251.43 302.83 249.93 313.67 249.93 324.93 251.2 336.44 252.12 348.18 253.46 359.87 254.81 371.66 254.59 383.29 253.7 394.54 252.07" stroke-dasharray="9 8" transform="rotate(44.44, 400, 400)" opacity="0.47"></path><path d="M388.23 263.45C398.56 260.23 408.06 256.93 416.66 253.93 425.25 250.48 433.02 248.21 440.01 247.39 447.17 247.25 453.8 249.04 460.1 252.7 466.98 257.41 473.96 263.9 481.3 271.85 489.69 280.6 498.8 290.46 508.65 301.04 519.58 312.02 531.03 323.43 542.52 334.96 554.08 346.63 564.64 358.28 573.33 369.69 580.33 381.15 584.27 392.31 584.57 402.99 582.21 413.67 576.43 423.31 567.98 431.84 558.26 440.32 547.19 447.66 535.62 453.85 524.56 460.04 513.92 465.19 504.04 469.44 495.46 474.04 487.67 478.16 480.54 482.13 474.46 487.12 468.56 492.58 462.57 498.82 457.07 506.66 451.02 515.57 444.26 525.41 437.6 536.45 430.02 547.73 421.49 558.48 412.93 568.65 403.39 576.79 392.94 581.93 382.48 584.51 371.67 583.22 360.73 578.42 349.87 571.39 338.98 561.82 328.3 550.59 317.85 538.84 307.78 526.62 298.39 514.57 289.43 503.32 281.36 492.71 274.45 482.87 268.17 474.1 263.19 465.85 259.7 457.95 256.77 450.73 255.22 443.41 255 435.77 254.88 428.39 255.66 420.38 257.17 411.64 258 402.94 259.03 393.4 260.12 383.04 259.99 372.68 259.82 362.02 259.69 351.29 258.7 340.65 258.21 330.08 258.41 319.86 258.48 309.93 259.7 300.6 262.15 292.18 265.03 284.31 269.31 277.62 274.9 272.39 281.06 267.84 288.43 264.82 296.76 263.39 305.54 262.35 315.09 262.54 325.11 263.74 335.38 264.48 345.95 265.51 356.57 266.51 367.27 266.07 377.9 265.06 388.23 263.45" stroke-dasharray="6 6" transform="rotate(48.48, 400, 400)" opacity="0.51"></path><path d="M383.01 274.82C392.48 271.82 401.3 268.78 409.44 266.01 417.61 262.77 425.17 260.5 432.2 259.46 439.43 258.89 446.37 259.97 453.17 262.69 460.5 266.25 468.04 271.44 475.93 278.01 484.69 285.31 494.02 293.72 503.86 302.92 514.45 312.54 525.27 322.68 535.88 333.05 546.35 343.59 555.74 354.2 563.34 364.63 569.43 375.13 572.8 385.37 572.98 395.17 570.92 404.97 565.85 413.82 558.38 421.68 549.74 429.52 539.73 436.39 529.08 442.31 518.66 448.32 508.37 453.55 498.56 458.16 489.73 463.18 481.5 467.97 473.83 472.78 467.07 478.54 460.56 484.8 454.1 491.74 448.14 499.97 441.86 509.01 435.12 518.67 428.52 529.16 421.24 539.65 413.22 549.45 405.21 558.62 396.4 565.92 386.84 570.56 377.27 573.01 367.46 572.08 357.59 568.07 347.8 562.09 338.07 553.76 328.61 543.78 319.38 533.15 310.58 521.84 302.49 510.42 294.78 499.46 287.95 488.86 282.21 478.82 276.99 469.59 272.96 460.83 270.24 452.43 267.93 444.65 266.81 436.9 266.83 429.05 266.84 421.48 267.62 413.52 269.02 405.09 269.76 396.71 270.7 387.74 271.71 378.19 271.62 368.64 271.53 358.99 271.49 349.41 270.65 339.92 270.23 330.65 270.39 321.83 270.33 313.27 271.24 305.38 273.2 298.42 275.42 291.91 278.88 286.53 283.5 282.46 288.56 278.89 294.74 276.65 301.85 275.72 309.34 274.99 317.59 275.25 326.39 276.29 335.4 276.8 344.78 277.5 354.3 278.16 363.9 277.52 373.53 276.41 383.01 274.82" stroke-dasharray="10 6" transform="rotate(52.52, 400, 400)" opacity="0.54"></path><path d="M379.36 286.19C388.02 283.42 396.24 280.64 404 278.11 411.79 275.1 419.21 272.91 426.3 271.74 433.6 270.86 440.78 271.37 447.95 273.29 455.59 275.86 463.47 279.88 471.67 285.17 480.52 291.08 489.79 298.07 499.35 305.87 509.38 314.08 519.42 322.87 529.06 331.99 538.41 341.29 546.66 350.75 553.22 360.14 558.45 369.59 561.31 378.88 561.39 387.83 559.6 396.77 555.19 404.92 548.65 412.24 541.05 419.58 532.12 426.14 522.44 431.97 512.8 437.95 503.05 443.39 493.55 448.43 484.73 453.9 476.32 459.32 468.36 464.86 461.13 471.23 454.16 478.06 447.33 485.43 440.96 493.81 434.45 502.75 427.67 512.04 421.06 521.86 413.99 531.48 406.4 540.32 398.84 548.53 390.68 555.03 381.96 559.18 373.24 561.5 364.4 560.89 355.61 557.58 346.88 552.59 338.31 545.44 330.09 536.71 322.05 527.26 314.5 516.99 307.66 506.4 301.14 496 295.45 485.72 290.79 475.79 286.51 466.42 283.3 457.41 281.23 448.76 279.43 440.6 278.64 432.56 278.81 424.58 278.89 416.85 279.63 408.93 280.89 400.79 281.53 392.7 282.36 384.26 283.3 375.48 283.25 366.7 283.24 358.01 283.3 349.56 282.61 341.17 282.29 333.14 282.46 325.65 282.7 315.08 287.72 298.68 292.89 293.42 296.99 290.62 302.1 288.94 308.09 288.35 314.37 287.77 321.41 287.98 329.02 288.8 336.81 289.04 345.03 289.43 353.49 289.76 362.02 288.94 370.69 287.75 379.36 286.19" stroke-dasharray="8 3" transform="rotate(56.56, 400, 400)" opacity="0.58"></path><path d="M377.62 297.57C385.52 295.01 393.19 292.51 400.58 290.23 408.02 287.48 415.28 285.42 422.38 284.21 429.67 283.13 436.97 283.22 444.34 284.5 452.09 286.25 460.07 289.25 468.29 293.4 476.98 298.04 485.93 303.69 494.98 310.16 504.28 316.97 513.41 324.41 522 332.25 530.23 340.27 537.37 348.53 542.97 356.85 547.42 365.22 549.8 373.55 549.81 381.67 548.27 389.79 544.47 397.31 538.8 404.19 532.2 411.11 524.33 417.46 515.66 423.31 506.9 429.31 497.86 434.99 488.86 440.45 480.3 446.32 471.97 452.24 463.97 458.32 456.52 465.09 449.3 472.24 442.25 479.79 435.6 488.08 428.91 496.71 422.12 505.46 415.51 514.52 408.62 523.22 401.41 531.11 394.24 538.38 386.67 544.12 378.75 547.81 370.82 549.98 362.91 549.63 355.17 546.96 347.47 542.87 340.02 536.84 332.98 529.33 326.08 521.1 319.7 511.97 314.01 502.36 308.57 492.75 303.92 483.05 300.18 473.52 296.71 464.33 294.18 455.38 292.62 446.72 291.22 438.43 290.66 430.3 290.92 422.33 291.02 414.55 291.67 406.76 292.77 398.92 293.31 391.14 294.03 383.21 294.88 375.17 294.88 367.12 294.95 359.35 295.1 351.95 294.58 344.59 294.39 337.69 294.6 331.4 294.79 322.54 298.82 309.24 303.03 305.14 308.43 302.25 323.7 300.66 333.18 301.24 339.83 301.2 346.97 301.27 354.43 301.3 361.94 300.32 369.71 299.07 377.62 297.57" stroke-dasharray="5 10" transform="rotate(60.599999999999994, 400, 400)" opacity="0.62"></path><path d="M377.95 308.94C385.14 306.61 392.27 304.37 399.29 302.36 406.35 299.9 413.39 298.01 420.39 296.83 427.55 295.67 434.8 295.46 442.15 296.25 449.78 297.35 457.61 299.52 465.59 302.69 473.86 306.22 482.26 310.68 490.6 315.91 499.03 321.43 507.16 327.58 514.67 334.19 521.79 340.95 527.89 348.04 532.58 355.29 536.32 362.6 538.28 369.98 538.22 377.32 536.91 384.65 533.67 391.58 528.82 398.08 523.16 404.62 516.32 410.81 508.69 416.67 500.88 422.69 492.66 428.56 484.35 434.33 476.28 440.46 468.28 446.69 460.48 453.1 453.07 460.02 445.82 467.24 438.76 474.71 432 482.68 425.27 490.82 418.56 498.89 412 507.09 405.31 514.86 398.48 521.8 391.7 528.17 384.69 533.18 377.5 536.43 370.32 538.44 363.29 538.32 356.53 536.22 349.8 532.94 343.38 527.95 337.42 521.61 331.57 514.59 326.24 506.65 321.57 498.14 317.08 489.49 313.3 480.61 310.33 471.72 307.54 463.01 305.54 454.41 304.37 446.02 303.25 437.88 302.85 429.89 303.12 422.1 303.19 414.46 303.73 406.9 304.66 399.44 305.09 392.03 305.71 384.62 306.47 377.29 306.51 369.95 306.64 363.02 306.89 356.56 306.51 347.18 307 331.55 308.39 325.63 314.29 317.85 330.88 313.38 338.91 313.55 344.55 313.24 350.7 313.01 357.25 312.77 363.83 311.67 370.76 310.38 377.95 308.94" stroke-dasharray="10 0" transform="rotate(64.64, 400, 400)" opacity="0.66"></path><path d="M380.33 320.32C386.84 318.22 393.42 316.25 400.01 314.49 406.64 312.34 413.35 310.67 420.11 309.57 426.98 308.42 433.99 308.05 441.09 308.49 448.37 309.11 455.8 310.63 463.29 313 470.94 315.62 478.59 319.06 486.07 323.21 493.53 327.57 500.6 332.56 507.04 338.03 513.09 343.61 518.2 349.59 522.07 355.84 525.15 362.12 526.74 368.59 526.63 375.17 525.53 381.75 522.81 388.12 518.71 394.25 513.93 400.41 508.1 406.4 501.5 412.22 494.67 418.18 487.38 424.11 479.88 430.03 472.47 436.23 465.02 442.56 457.65 449.02 450.53 455.85 443.51 462.89 436.63 470.03 429.98 477.49 423.39 484.97 416.87 492.26 410.49 499.55 404.08 506.37 397.66 512.38 391.28 517.9 384.83 522.23 378.35 525.06 371.87 526.9 365.66 526.96 359.78 525.35 353.93 522.79 348.46 518.76 343.45 513.53 338.52 507.67 334.1 500.93 330.3 493.59 326.6 486.03 323.54 478.12 321.18 470.1 318.91 462.11 317.32 454.13 316.42 446.27 315.49 438.55 315.16 430.95 315.38 423.54 315.39 416.24 315.8 409.06 316.56 402.07 316.87 395.12 317.38 388.28 318.06 381.64 318.23 371.91 318.51 355.07 318.94 348.11 320.78 337.34 328.81 327.9 333.71 326.89 339.34 325.97 353.55 324.89 361.92 324.17 367.66 322.98 373.81 321.68 380.33 320.32" stroke-dasharray="0 8" transform="rotate(68.68, 400, 400)" opacity="0.70"></path><path d="M384.53 331.69C396.23 327.42 408.59 324.13 421.19 322.39 434.11 320.24 447.64 320.84 461.13 324.23 474.86 328.21 488.02 334.96 499.09 343.82 508.72 353 514.56 363.76 515.04 375.47 512.48 387.17 504.9 398.73 494.05 409.96 482.21 421.61 468.82 433.64 455.25 445.9 442.2 459.1 429.24 472.69 416.84 485.52 404.79 498.05 392.8 508.11 381.19 513.68 369.59 516.19 359.37 512.9 350.96 505.05 342.68 495.09 336.44 482.28 332.6 468.34 328.83 454.21 327.22 439.85 327.67 426.16 327.25 412.69 327.97 399.71 329.65 387.78 329.33 375.85 329.78 365.99 331.07 358.44 332.18 348.3 343.62 338.81 354.66 337.68 362.76 335.6 372.82 333.62 384.53 331.69" stroke-dasharray="10 9" transform="rotate(72.72, 400, 400)" opacity="0.73"></path><path d="M390.16 343.07C400.54 339.37 411.71 336.65 423.2 335.25 434.86 333.35 446.98 333.66 458.84 336.23 470.67 339.08 481.74 344.29 490.78 351.48 498.59 358.84 503.2 367.88 503.46 378.16 501.42 388.44 495.26 399.05 486.29 409.68 476.41 420.6 464.92 431.98 452.99 443.47 441.26 455.48 429.43 467.55 418.08 478.63 406.96 489.25 396.05 497.65 385.78 502.31 375.51 504.65 366.74 502.29 359.72 496.16 352.73 488.33 347.57 477.87 344.43 466.16 341.19 454.07 339.72 441.5 339.95 429.35 339.37 417.29 339.83 405.67 341.23 395.12 341.06 384.57 341.7 375.98 343.13 369.46 344.53 360.56 354.68 351.3 364.16 349.41 371.05 347.06 379.77 344.92 390.16 343.07" stroke-dasharray="9 4" transform="rotate(76.76, 400, 400)" opacity="0.77"></path><path d="M396.7 354.44C405.74 351.32 415.55 349.14 425.61 348.11 435.76 346.57 446.18 346.78 456.17 348.8 466 350.89 474.97 354.93 482.1 360.73 488.26 366.61 491.8 374.11 491.87 382.99 490.29 391.87 485.42 401.35 478.22 411.03 470.23 420.89 460.72 431.19 450.62 441.46 440.52 451.96 430.16 462.28 420.15 471.53 410.26 480.28 400.62 487.13 391.69 490.93 382.76 493.06 375.28 491.48 369.4 486.86 363.49 480.94 359.15 472.74 356.49 463.28 353.63 453.4 352.2 442.87 352.17 432.52 351.46 422.15 351.67 412.09 352.82 402.94 352.77 393.78 353.54 386.33 355.07 380.62 356.76 372.67 366.03 363.39 374.24 360.88 380.14 358.37 387.66 356.19 396.7 354.44" stroke-dasharray="6 3" transform="rotate(80.80000000000001, 400, 400)" opacity="0.81"></path><path d="M403.55 365.82C411.2 363.26 419.48 361.6 427.91 360.92 436.34 359.8 444.87 360.05 452.89 361.73 460.7 363.34 467.67 366.53 473.05 371.2 477.72 375.88 480.34 382.02 480.28 389.49 479.11 396.96 475.38 405.11 469.8 413.53 463.61 422.03 456.07 430.88 447.89 439.59 439.61 448.34 430.97 456.78 422.53 464.18 414.13 471.14 405.93 476.54 398.36 479.56 390.8 481.43 384.52 480.46 379.6 477.14 374.62 472.9 370.93 466.77 368.58 459.49 366.02 451.82 364.6 443.44 364.31 435.02 363.49 426.54 363.51 418.18 364.41 410.47 364.88 399.56 368.79 384.24 372.73 379.43 377.36 374.98 392.7 368.46 403.55 365.82" stroke-dasharray="2 3" transform="rotate(84.84, 400, 400)" opacity="0.85"></path><path d="M410.07 377.19C422.51 372.59 436.57 371.71 448.81 374.75 460.32 377.36 468.25 384.92 468.69 397.02 466.35 409.11 456.93 423.7 444.58 437.55 431.73 451.21 417.49 462.94 405.19 468.19 392.89 470.55 384.52 464.85 380.48 454.6 375.72 443.2 374.1 429.43 376 416.97 375.64 404.51 378.54 395.55 384.13 390.28 388.86 383.84 397.62 379.26 410.07 377.19" stroke-dasharray="4 4" transform="rotate(88.88, 400, 400)" opacity="0.89"></path><path d="M415.65 388.56C425.1 385.27 435.3 385 443.79 387.61 451.77 389.84 457.04 395.66 457.11 404.84 455.64 414.01 449.2 424.95 440.49 435.07 431.37 444.92 420.9 453.18 411.54 456.81 402.17 458.84 395.53 455.35 392 448.5 387.98 440.94 386.33 431.22 387.58 421.82 387.53 412.4 390.22 405.02 394.96 400.13 399.15 394.54 406.2 390.4 415.65 388.56" stroke-dasharray="4 5" transform="rotate(92.92, 400, 400)" opacity="0.92"></path><path d="M419.79 399.94C432.51 395.18 445.1 399.8 445.52 412.18 443.29 424.55 429.45 440.35 416.81 445.44 404.16 447.73 397.16 437.12 399.17 424.52 398.79 411.91 407.05 402.08 419.79 399.94" stroke-dasharray="10 8" transform="rotate(96.96, 400, 400)" opacity="0.96"></path></g></svg>